Normalized EMG Linear Envelopes
nRows=232
nColumns=4

endheader
time	 med_gas_r	  soleus_r	 tib_ant_r	
2.89415	  0.001896	  0.002492	  0.000965	
2.92742	  0.001862	  0.002515	  0.000973	
2.96069	  0.001829	  0.002647	  0.000977	
2.99395	  0.001797	  0.002915	  0.000975	
3.02722	  0.001765	  0.003339	  0.000970	
3.06048	  0.001733	  0.003922	  0.000963	
3.09375	  0.001699	  0.004622	  0.000957	
3.12702	  0.001664	  0.005328	  0.000956	
3.16028	  0.001631	  0.005873	  0.000959	
3.19355	  0.001603	  0.006096	  0.000969	
3.22681	  0.001586	  0.005921	  0.000984	
3.26008	  0.001584	  0.005408	  0.001002	
3.29335	  0.001602	  0.004707	  0.001019	
3.32661	  0.001638	  0.003987	  0.001028	
3.35988	  0.001689	  0.003360	  0.001023	
3.39315	  0.001747	  0.002872	  0.001006	
3.42641	  0.001801	  0.002526	  0.000978	
3.45968	  0.001846	  0.002309	  0.000947	
3.49294	  0.001875	  0.002201	  0.000916	
3.52621	  0.001887	  0.002177	  0.000890	
3.55948	  0.001881	  0.002207	  0.000870	
3.59274	  0.001860	  0.002263	  0.000857	
3.62601	  0.001831	  0.002325	  0.000849	
3.65927	  0.001804	  0.002383	  0.000848	
3.69254	  0.001786	  0.002431	  0.000854	
3.72581	  0.001774	  0.002469	  0.000868	
3.75907	  0.001766	  0.002500	  0.000889	
3.79234	  0.001756	  0.002525	  0.000918	
3.8256	  0.001739	  0.002545	  0.000953	
3.85887	  0.001720	  0.002559	  0.000988	
3.89214	  0.001707	  0.002567	  0.001019	
3.9254	  0.001714	  0.002572	  0.001039	
3.95867	  0.001750	  0.002578	  0.001045	
3.99194	  0.001814	  0.002590	  0.001037	
4.0252	  0.001896	  0.002611	  0.001019	
4.05847	  0.001974	  0.002646	  0.000996	
4.09173	  0.002031	  0.002703	  0.000975	
4.125	  0.002053	  0.002793	  0.000958	
4.15827	  0.002040	  0.002928	  0.000950	
4.19153	  0.001998	  0.003123	  0.000953	
4.2248	  0.001938	  0.003391	  0.000968	
4.25806	  0.001870	  0.003736	  0.000994	
4.29133	  0.001807	  0.004139	  0.001030	
4.3246	  0.001759	  0.004544	  0.001071	
4.35786	  0.001731	  0.004874	  0.001112	
4.39113	  0.001725	  0.005067	  0.001148	
4.4244	  0.001737	  0.005119	  0.001172	
4.45766	  0.001762	  0.005083	  0.001177	
4.49093	  0.001792	  0.005037	  0.001165	
4.52419	  0.001819	  0.005018	  0.001142	
4.55746	  0.001829	  0.005003	  0.001119	
4.59073	  0.001815	  0.004932	  0.001105	
4.62399	  0.001778	  0.004767	  0.001105	
4.65726	  0.001726	  0.004521	  0.001118	
4.69052	  0.001672	  0.004254	  0.001133	
4.72379	  0.001629	  0.004028	  0.001142	
4.75706	  0.001605	  0.003864	  0.001130	
4.79032	  0.001603	  0.003740	  0.001082	
4.82359	  0.001620	  0.003607	  0.000980	
4.85685	  0.001650	  0.003428	  0.000812	
4.89012	  0.001685	  0.003204	  0.000576	
4.92339	  0.001718	  0.002959	  0.000289	
4.95665	  0.001741	  0.002727	 -0.000011	
4.98992	  0.001751	  0.002538	 -0.000255	
5.02319	  0.001747	  0.002415	 -0.000333	
5.05645	  0.001734	  0.002388	 -0.000088	
5.08972	  0.001727	  0.002492	  0.000681	
5.12298	  0.001750	  0.002774	  0.002179	
5.15625	  0.001827	  0.003284	  0.004609	
5.18952	  0.001982	  0.004092	  0.008190	
5.22278	  0.002234	  0.005289	  0.013210	
5.25605	  0.002590	  0.006971	  0.020000	
5.28931	  0.003044	  0.009201	  0.028771	
5.32258	  0.003568	  0.011955	  0.039377	
5.35585	  0.004115	  0.015091	  0.051164	
5.38911	  0.004626	  0.018362	  0.063077	
5.42238	  0.005058	  0.021478	  0.074023	
5.45565	  0.005401	  0.024186	  0.083303	
5.48891	  0.005678	  0.026342	  0.090845	
5.52218	  0.005937	  0.027932	  0.097139	
5.55544	  0.006224	  0.029057	  0.102964	
5.58871	  0.006569	  0.029904	  0.109136	
5.62198	  0.006984	  0.030695	  0.116363	
5.65524	  0.007461	  0.031644	  0.125141	
5.68851	  0.007978	  0.032903	  0.135581	
5.72177	  0.008507	  0.034545	  0.147284	
5.75504	  0.009020	  0.036566	  0.159417	
5.78831	  0.009490	  0.038899	  0.171064	
5.82157	  0.009888	  0.041434	  0.181613	
5.85484	  0.010189	  0.044034	  0.190882	
5.8881	  0.010374	  0.046548	  0.198824	
5.92137	  0.010437	  0.048803	  0.205109	
5.95464	  0.010395	  0.050638	  0.209052	
5.9879	  0.010288	  0.051975	  0.210124	
6.02117	  0.010183	  0.052908	  0.208679	
6.05444	  0.010162	  0.053725	  0.206250	
6.0877	  0.010308	  0.054852	  0.205092	
6.12097	  0.010699	  0.056760	  0.207334	
6.15423	  0.011396	  0.059870	  0.214382	
6.1875	  0.012434	  0.064460	  0.226785	
6.22077	  0.013804	  0.070535	  0.244319	
6.25403	  0.015422	  0.077724	  0.266005	
6.2873	  0.017129	  0.085310	  0.290145	
6.32056	  0.018710	  0.092437	  0.314611	
6.35383	  0.019953	  0.098410	  0.337353	
6.3871	  0.020708	  0.102891	  0.356826	
6.42036	  0.020944	  0.105888	  0.372118	
6.45363	  0.020744	  0.107562	  0.382825	
6.4869	  0.020268	  0.108037	  0.388888	
6.52016	  0.019694	  0.107415	  0.390536	
6.55343	  0.019183	  0.105972	  0.388340	
6.58669	  0.018874	  0.104343	  0.383355	
6.61996	  0.018878	  0.103466	  0.377328	
6.65323	  0.019279	  0.104292	  0.372816	
6.68649	  0.020124	  0.107441	  0.372917	
6.71976	  0.021406	  0.112972	  0.380350	
6.75302	  0.023042	  0.120357	  0.396217	
6.78629	  0.024873	  0.128651	  0.419324	
6.81956	  0.026702	  0.136823	  0.446795	
6.85282	  0.028363	  0.144110	  0.475705	
6.88609	  0.029756	  0.150167	  0.504505	
6.91935	  0.030860	  0.154942	  0.533239	
6.95262	  0.031707	  0.158437	  0.562752	
6.98589	  0.032377	  0.160666	  0.593794	
7.01915	  0.033007	  0.161857	  0.626555	
7.05242	  0.033773	  0.162642	  0.660462	
7.08569	  0.034830	  0.163851	  0.694136	
7.11895	  0.036229	  0.165981	  0.725815	
7.15222	  0.037875	  0.168790	  0.754199	
7.18548	  0.039564	  0.171450	  0.778971	
7.21875	  0.041049	  0.173159	  0.800210	
7.25202	  0.042112	  0.173668	  0.817183	
7.28528	  0.042616	  0.173341	  0.827992	
7.31855	  0.042540	  0.172806	  0.830828	
7.35181	  0.041994	  0.172521	  0.825738	
7.38508	  0.041165	  0.172525	  0.815056	
7.41835	  0.040242	  0.172447	  0.802018	
7.45161	  0.039364	  0.171729	  0.788965	
7.48488	  0.038623	  0.169938	  0.776729	
7.51815	  0.038078	  0.166971	  0.765242	
7.55141	  0.037741	  0.163042	  0.754150	
7.58468	  0.037532	  0.158499	  0.742667	
7.61794	  0.037270	  0.153628	  0.729272	
7.65121	  0.036745	  0.148579	  0.712168	
7.68448	  0.035830	  0.143448	  0.690476	
7.71774	  0.034567	  0.138430	  0.665268	
7.75101	  0.033165	  0.133888	  0.639720	
7.78427	  0.031922	  0.130256	  0.618237	
7.81754	  0.031102	  0.127843	  0.604791	
7.85081	  0.030858	  0.126768	  0.601161	
7.88407	  0.031211	  0.127094	  0.606133	
7.91734	  0.032101	  0.128975	  0.616314	
7.9506	  0.033429	  0.132584	  0.627875	
7.98387	  0.035051	  0.137808	  0.637758	
8.01714	  0.036765	  0.144048	  0.643662	
8.0504	  0.038333	  0.150427	  0.643696	
8.08367	  0.039582	  0.156268	  0.636982	
8.11694	  0.040481	  0.161437	  0.625083	
8.1502	  0.041152	  0.166223	  0.612637	
8.18347	  0.041762	  0.170910	  0.605802	
8.21673	  0.042424	  0.175467	  0.609028	
8.25	  0.043164	  0.179601	  0.622386	
8.28327	  0.043977	  0.183046	  0.641532	
8.31653	  0.044882	  0.185744	  0.660456	
8.3498	  0.045889	  0.187694	  0.674898	
8.38306	  0.046899	  0.188582	  0.683944	
8.41633	  0.047624	  0.187591	  0.689142	
8.4496	  0.047662	  0.183684	  0.692712	
8.48286	  0.046711	  0.176281	  0.696575	
8.51613	  0.044778	  0.165887	  0.702253	
8.5494	  0.042216	  0.154190	  0.710608	
8.58266	  0.039554	  0.143483	  0.721154	
8.61593	  0.037245	  0.135740	  0.731797	
8.64919	  0.035524	  0.131863	  0.739636	
8.68246	  0.034435	  0.131491	  0.742268	
8.71573	  0.033940	  0.133407	  0.738661	
8.74899	  0.033992	  0.136258	  0.729319	
8.78226	  0.034540	  0.139231	  0.716082	
8.81552	  0.035518	  0.142374	  0.701774	
8.84879	  0.036858	  0.146387	  0.689609	
8.88206	  0.038502	  0.151996	  0.682350	
8.91532	  0.040373	  0.159256	  0.681509	
8.94859	  0.042334	  0.167261	  0.686909	
8.98185	  0.044203	  0.174478	  0.696896	
9.01512	  0.045839	  0.179442	  0.709241	
9.04839	  0.047208	  0.181324	  0.722252	
9.08165	  0.048333	  0.180095	  0.735136	
9.11492	  0.049195	  0.176377	  0.747148	
9.14819	  0.049668	  0.171152	  0.756501	
9.18145	  0.049585	  0.165441	  0.760608	
9.21472	  0.048830	  0.159996	  0.757900	
9.24798	  0.047405	  0.155182	  0.749442	
9.28125	  0.045445	  0.151144	  0.738498	
9.31452	  0.043199	  0.148087	  0.728238	
9.34778	  0.040978	  0.146379	  0.719711	
9.38105	  0.039072	  0.146397	  0.711696	
9.41431	  0.037654	  0.148268	  0.701846	
9.44758	  0.036718	  0.151630	  0.687395	
9.48085	  0.036083	  0.155446	  0.664848	
9.51411	  0.035465	  0.158075	  0.629852	
9.54738	  0.034622	  0.157842	  0.578483	
9.58065	  0.033524	  0.154064	  0.509585	
9.61391	  0.032454	  0.147832	  0.426425	
9.64718	  0.031911	  0.141721	  0.336326	
9.68044	  0.032267	  0.138261	  0.248369	
9.71371	  0.033383	  0.138190	  0.170506	
9.74698	  0.034501	  0.139910	  0.107551	
9.78024	  0.034610	  0.140733	  0.060784	
9.81351	  0.033070	  0.138898	  0.028858	
9.84677	  0.030010	  0.134657	  0.009154	
9.88004	  0.026167	  0.129601	 -0.001189	
9.91331	  0.022357	  0.125062	 -0.004802	
9.94657	  0.019022	  0.121066	 -0.003957	
9.97984	  0.016181	  0.116542	 -0.000540	
10.0131	  0.013669	  0.110319	  0.003961	
10.0464	  0.011379	  0.101952	  0.008420	
10.0796	  0.009332	  0.091861	  0.012013	
10.1129	  0.007599	  0.080916	  0.014209	
10.1462	  0.006219	  0.069963	  0.014826	
10.1794	  0.005173	  0.059633	  0.014062	
10.2127	  0.004405	  0.050394	  0.012406	
10.246	  0.003853	  0.042580	  0.010421	
10.2792	  0.003464	  0.036305	  0.008546	
10.3125	  0.003188	  0.031390	  0.007021	
10.3458	  0.002985	  0.027441	  0.005925	
10.379	  0.002823	  0.024041	  0.005255	
10.4123	  0.002681	  0.020907	  0.004948	
10.4456	  0.002551	  0.017932	  0.004869	
10.4788	  0.002433	  0.015140	  0.004815	
10.5121	  0.002327	  0.012604	  0.004592	
10.5454	  0.002235	  0.010381	  0.004104	
10.5786	  0.002156	  0.008465	  0.003413	
